<svg width="307" height="90" viewBox="0 0 307 90" fill="none" xmlns="http://www.w3.org/2000/svg">
<path d="M190.469 49.5938H202.156L196.406 31.4688L190.469 49.5938ZM191.062 20.9375H201.938L218.25 67H207.812L204.844 57.5312H187.875L184.688 67H174.625L191.062 20.9375Z" fill="#32465A"/>
<path d="M250.062 35.5938C250.062 33.1979 249.427 31.4896 248.156 30.4688C246.906 29.4479 245.146 28.9375 242.875 28.9375H233.906V42.5H242.875C245.146 42.5 246.906 41.9479 248.156 40.8438C249.427 39.7396 250.062 37.9896 250.062 35.5938ZM259.594 35.5312C259.594 40.9688 258.219 44.8125 255.469 47.0625C252.719 49.3125 248.792 50.4375 243.688 50.4375H233.906V67H224.344V20.9375H244.406C249.031 20.9375 252.719 22.125 255.469 24.5C258.219 26.875 259.594 30.5521 259.594 35.5312Z" fill="#32465A"/>
<path d="M292.75 35.5938C292.75 33.1979 292.115 31.4896 290.844 30.4688C289.594 29.4479 287.833 28.9375 285.562 28.9375H276.594V42.5H285.562C287.833 42.5 289.594 41.9479 290.844 40.8438C292.115 39.7396 292.75 37.9896 292.75 35.5938ZM302.281 35.5312C302.281 40.9688 300.906 44.8125 298.156 47.0625C295.406 49.3125 291.479 50.4375 286.375 50.4375H276.594V67H267.031V20.9375H287.094C291.719 20.9375 295.406 22.125 298.156 24.5C300.906 26.875 302.281 30.5521 302.281 35.5312Z" fill="#32465A"/>
<path d="M86.9922 66.9999V20.9199H93.6482L108.752 61.5599H108.88L123.728 20.9199H130.32V66.9999H125.968V25.9119H125.84L110.736 66.9999H106.64L91.4722 25.9119H91.3442V66.9999H86.9922Z" fill="#4B6174"/>
<path d="M154.641 43.1279L168.529 20.9199H173.585L156.881 46.9039V66.9999H152.529V47.2239L136.081 20.9199H141.073L154.641 43.1279Z" fill="#4B6174"/>
<circle cx="36" cy="44" r="34" fill="#32465A"/>
<path d="M40.6697 31.4097H48.3607V56.9999H43.378V39.6909C43.378 39.1932 43.3838 38.4988 43.3954 37.6076C43.407 36.7048 43.4128 36.0104 43.4128 35.5243L38.569 56.9999H33.378L28.569 35.5243C28.569 36.0104 28.5748 36.7048 28.5864 37.6076C28.5979 38.4988 28.6037 39.1932 28.6037 39.6909V56.9999H23.6211V31.4097H31.3989L36.0516 51.5312L40.6697 31.4097Z" fill="white"/>
</svg>
