<svg width="234" height="136" viewBox="0 0 234 136" fill="none" xmlns="http://www.w3.org/2000/svg">
<path d="M67.7238 114.158C93.4892 114.158 114.381 93.2665 114.381 67.5011C114.381 41.7357 93.4892 20.844 67.7238 20.844C41.9584 20.844 21.0508 41.7357 21.0508 67.5011C21.0508 93.2665 41.9425 114.158 67.7238 114.158" fill="#13B5EA"/>
<path d="M43.3862 67.3742L51.3555 59.389C51.6229 59.1196 51.7722 58.7549 51.7708 58.3753C51.7693 57.9958 51.6171 57.6323 51.3476 57.365C51.0781 57.0976 50.7135 56.9482 50.3339 56.9497C49.9543 56.9512 49.5909 57.1034 49.3235 57.3729L41.37 65.3263L33.369 57.3729C33.2381 57.241 33.0822 57.1366 32.9105 57.0658C32.7387 56.9949 32.5546 56.959 32.3688 56.9601C32.0858 56.9564 31.8081 57.0379 31.5719 57.1938C31.3356 57.3498 31.1517 57.5732 31.0439 57.8349C30.9361 58.0967 30.9095 58.3848 30.9674 58.6619C31.0253 58.939 31.1651 59.1923 31.3687 59.389L39.338 67.3584L31.3687 75.3277C31.1675 75.5266 31.0299 75.7808 30.9733 76.0579C30.9167 76.3351 30.9437 76.6229 31.0508 76.8847C31.1579 77.1465 31.3404 77.3707 31.575 77.5287C31.8097 77.6868 32.0859 77.7716 32.3688 77.7725C32.5546 77.7736 32.7387 77.7377 32.9105 77.6669C33.0822 77.596 33.2381 77.4916 33.369 77.3597L41.3542 69.3904L49.3076 77.328C49.4383 77.471 49.5978 77.5847 49.7757 77.6613C49.9536 77.7379 50.1458 77.7758 50.3395 77.7725C50.7185 77.7725 51.0819 77.622 51.3498 77.354C51.6178 77.0861 51.7683 76.7226 51.7683 76.3437C51.7638 75.9698 51.6161 75.6118 51.3555 75.3436L43.3862 67.3742Z" fill="white"/>
<path d="M90.7267 67.3584C90.6987 67.7163 90.745 68.0762 90.8627 68.4153C90.9805 68.7545 91.1671 69.0656 91.4108 69.3292C91.6546 69.5928 91.9502 69.8031 92.2792 69.947C92.6081 70.0908 92.9633 70.1651 93.3223 70.1651C93.6813 70.1651 94.0364 70.0908 94.3654 69.947C94.6943 69.8031 94.99 69.5928 95.2337 69.3292C95.4775 69.0656 95.6641 68.7545 95.7818 68.4153C95.8996 68.0762 95.9459 67.7163 95.9179 67.3584C95.8667 66.7051 95.5711 66.095 95.09 65.6501C94.6088 65.2051 93.9776 64.958 93.3223 64.958C92.6669 64.958 92.0357 65.2051 91.5546 65.6501C91.0735 66.095 90.7778 66.7051 90.7267 67.3584Z" fill="white"/>
<path d="M85.8044 67.3585C85.8044 65.874 86.2444 64.4229 87.0687 63.1884C87.8931 61.9539 89.0649 60.9914 90.4361 60.4226C91.8073 59.8538 93.3162 59.7042 94.7724 59.9927C96.2286 60.2811 97.5666 60.9947 98.6173 62.0432C99.6681 63.0918 100.385 64.4283 100.676 65.8838C100.968 67.3394 100.821 68.8487 100.255 70.221C99.6893 71.5934 98.7294 72.7672 97.4966 73.5942C96.2639 74.4212 94.8136 74.8643 93.3292 74.8674C91.3375 74.8632 89.4284 74.0713 88.0185 72.6644C86.6087 71.2576 85.8127 69.3501 85.8044 67.3585V67.3585ZM82.8516 67.3585C82.8484 69.4314 83.4603 71.4587 84.6096 73.1838C85.759 74.909 87.3943 76.2544 89.3086 77.0498C91.2228 77.8453 93.33 78.055 95.3635 77.6526C97.397 77.2501 99.2654 76.2534 100.732 74.7887C102.199 73.3241 103.199 71.4572 103.604 69.4243C104.01 67.3914 103.803 65.2839 103.011 63.3684C102.218 61.453 100.875 59.8156 99.1519 58.6636C97.4285 57.5116 95.4021 56.8967 93.3292 56.8967C90.5531 56.8967 87.8905 57.9984 85.926 59.9599C83.9615 61.9214 82.8558 64.5824 82.8516 67.3585" fill="white"/>
<path d="M82.1244 57.087H81.6799C80.3614 57.0811 79.0779 57.5108 78.0287 58.3094C77.9566 57.993 77.779 57.7107 77.5251 57.5087C77.2712 57.3067 76.9561 57.1972 76.6316 57.1981C76.2569 57.1981 75.8975 57.347 75.6326 57.6119C75.3676 57.8769 75.2188 58.2363 75.2188 58.611V76.2324C75.227 76.6073 75.3806 76.9643 75.6473 77.228C75.9139 77.4916 76.2726 77.6413 76.6475 77.6453C76.8344 77.6474 77.0198 77.6124 77.1931 77.5424C77.3663 77.4723 77.524 77.3686 77.6569 77.2371C77.7897 77.1057 77.8952 76.9493 77.9672 76.7768C78.0392 76.6043 78.0763 76.4193 78.0763 76.2324V65.3897C78.0763 61.786 78.4097 60.3255 81.5053 59.9286C81.7911 59.8969 82.1086 59.8969 82.1086 59.8969C82.95 59.881 83.5532 59.2936 83.5532 58.4999C83.549 58.1237 83.3967 57.7643 83.1292 57.4998C82.8617 57.2353 82.5006 57.087 82.1244 57.087" fill="white"/>
<path d="M54.7208 65.6439V65.5169C55.1352 63.8749 56.0892 62.4197 57.4297 61.3847C58.7702 60.3498 60.4195 59.7952 62.1129 59.8098C63.8064 59.8245 65.4458 60.4076 66.7682 61.4655C68.0906 62.5235 69.0193 63.995 69.4053 65.6439H54.7208ZM72.3263 65.374C71.7072 62.4689 70.1197 60.0717 67.6908 58.5318C66.1026 57.5305 64.2746 56.9743 62.3979 56.9214C60.5212 56.8685 58.6647 57.3208 57.0227 58.2311C55.3807 59.1413 54.0134 60.4761 53.0639 62.0957C52.1143 63.7153 51.6174 65.5604 51.6251 67.4378C51.6211 68.2894 51.7279 69.1379 51.9426 69.962C52.4716 72.0017 53.5999 73.8361 55.1817 75.2284C56.7636 76.6206 58.7264 77.5068 60.8168 77.7725C63.2268 78.0368 65.6553 77.4773 67.7067 76.185C68.7227 75.5341 69.564 74.6769 70.3896 73.6609L70.4372 73.5974C71.0087 72.8989 70.8976 71.8829 70.2784 71.4066C69.6593 70.9303 68.8655 70.851 68.167 71.74C67.4985 72.6993 66.6187 73.4923 65.5953 74.0578C64.5158 74.6339 63.3104 74.9338 62.0868 74.9309C57.9434 74.8991 55.7209 71.994 54.9271 69.9302C54.7952 69.5354 54.6892 69.1323 54.6096 68.7237C54.6096 68.6443 54.5938 68.5808 54.5938 68.5014H69.4847C71.5326 68.4697 72.628 67.0251 72.3263 65.374" fill="white"/>
<path d="M166.212 114.127C191.977 114.127 212.869 93.235 212.869 67.4538C212.869 41.6725 191.977 20.7966 166.212 20.7966C140.447 20.7966 119.539 41.6884 119.539 67.4538C119.539 93.2192 140.431 114.127 166.212 114.127Z" fill="#231F20"/>
<path d="M135.432 60.1987C135.257 60.1987 135.146 60.1193 134.94 59.9764C134.609 59.7636 134.222 59.6531 133.828 59.6589C132.59 59.6589 131.987 60.5003 131.987 62.2942V63.6595C131.987 65.5327 132.558 66.263 133.765 66.263C134.193 66.2697 134.613 66.148 134.971 65.9137C135.12 65.7996 135.295 65.7234 135.479 65.6915C135.557 65.6914 135.634 65.7071 135.706 65.7378C135.777 65.7685 135.842 65.8135 135.895 65.8699C135.949 65.9264 135.99 65.9932 136.017 66.0663C136.044 66.1393 136.055 66.2171 136.051 66.2947C136.049 66.3952 136.025 66.494 135.981 66.5844C135.937 66.6748 135.874 66.7547 135.797 66.8186C135.257 67.3266 134.384 67.533 133.765 67.533C131.463 67.533 130.59 65.9614 130.59 63.6595V62.2625C130.59 60.0558 131.479 58.4048 133.828 58.4048C134.527 58.4048 135.305 58.6112 135.781 59.0557C135.863 59.1179 135.931 59.1968 135.98 59.2871C136.029 59.3774 136.059 59.477 136.067 59.5795C136.067 59.6622 136.05 59.744 136.018 59.8202C135.986 59.8964 135.939 59.9653 135.88 60.0231C135.821 60.0808 135.751 60.126 135.674 60.1562C135.597 60.1864 135.514 60.2008 135.432 60.1987V60.1987Z" fill="white"/>
<path d="M140.338 67.5489C138.004 67.5489 137.227 65.8979 137.227 64.231V61.6909C137.227 60.0399 138.004 58.4048 140.338 58.4048C142.672 58.4048 143.466 60.0399 143.466 61.6909V64.231C143.466 65.8979 142.672 67.5489 140.338 67.5489ZM142.068 61.6909C142.068 60.5479 141.672 59.6748 140.338 59.6748C139.005 59.6748 138.608 60.5321 138.608 61.6909V64.231C138.608 65.3899 139.02 66.263 140.338 66.263C141.656 66.263 142.068 65.3899 142.068 64.231V61.6909Z" fill="white"/>
<path d="M150.72 67.5331C150.587 67.5427 150.455 67.5151 150.337 67.4534C150.219 67.3917 150.121 67.2983 150.053 67.1838L146.466 61.2783V66.8981C146.441 67.0512 146.363 67.1908 146.246 67.2915C146.128 67.3923 145.978 67.4476 145.823 67.4476C145.668 67.4476 145.518 67.3923 145.4 67.2915C145.282 67.1908 145.204 67.0512 145.18 66.8981V59.0399C145.179 58.9523 145.197 58.8657 145.232 58.7853C145.267 58.705 145.318 58.6328 145.382 58.5731C145.446 58.5135 145.522 58.4678 145.605 58.4388C145.687 58.4099 145.775 58.3983 145.862 58.4049C145.998 58.3992 146.133 58.4301 146.253 58.4943C146.374 58.5585 146.474 58.6537 146.545 58.77L150.133 64.6597V59.0399C150.133 58.8715 150.2 58.7099 150.319 58.5909C150.438 58.4718 150.599 58.4049 150.768 58.4049C150.938 58.4048 151.101 58.4712 151.222 58.5899C151.344 58.7085 151.414 58.87 151.419 59.0399V66.8981C151.417 66.9864 151.397 67.0734 151.36 67.1537C151.324 67.2341 151.271 67.3062 151.206 67.3656C151.14 67.425 151.064 67.4705 150.98 67.4993C150.897 67.5281 150.808 67.5396 150.72 67.5331V67.5331Z" fill="white"/>
<path d="M158.849 67.5331C158.716 67.5427 158.584 67.5151 158.466 67.4534C158.348 67.3917 158.25 67.2983 158.182 67.1838L154.594 61.2783V66.8981C154.57 67.0512 154.492 67.1908 154.374 67.2915C154.257 67.3923 154.107 67.4476 153.952 67.4476C153.796 67.4476 153.647 67.3923 153.529 67.2915C153.411 67.1908 153.333 67.0512 153.309 66.8981V59.0399C153.308 58.9523 153.326 58.8657 153.361 58.7853C153.396 58.705 153.447 58.6328 153.511 58.5731C153.575 58.5135 153.651 58.4678 153.734 58.4388C153.816 58.4099 153.904 58.3983 153.991 58.4049C154.127 58.3992 154.262 58.4301 154.382 58.4943C154.502 58.5585 154.603 58.6537 154.674 58.77L158.262 64.6597V59.0399C158.262 58.9551 158.279 58.8712 158.311 58.7931C158.344 58.715 158.393 58.6443 158.453 58.5851C158.514 58.526 158.586 58.4795 158.665 58.4486C158.744 58.4176 158.828 58.4027 158.913 58.4049C159.08 58.4089 159.239 58.4771 159.357 58.5953C159.475 58.7135 159.544 58.8727 159.548 59.0399V66.8981C159.546 66.9864 159.526 67.0734 159.489 67.1537C159.453 67.2341 159.4 67.3062 159.335 67.3656C159.269 67.425 159.193 67.4705 159.109 67.4993C159.026 67.5281 158.937 67.5396 158.849 67.5331V67.5331Z" fill="white"/>
<path d="M166.212 67.4218H162.1C162.013 67.4218 161.926 67.4046 161.845 67.3711C161.764 67.3376 161.691 67.2885 161.629 67.2265C161.567 67.1646 161.518 67.0911 161.484 67.0102C161.451 66.9293 161.434 66.8426 161.434 66.7551V59.1826C161.434 59.0951 161.451 59.0084 161.484 58.9275C161.518 58.8466 161.567 58.7731 161.629 58.7112C161.691 58.6492 161.764 58.6001 161.845 58.5666C161.926 58.5331 162.013 58.5159 162.1 58.5159H166.037C166.214 58.5159 166.384 58.5861 166.509 58.7112C166.634 58.8362 166.704 59.0058 166.704 59.1826C166.704 59.2695 166.687 59.3554 166.653 59.4354C166.619 59.5155 166.57 59.5879 166.508 59.6486C166.446 59.7092 166.372 59.7568 166.291 59.7886C166.211 59.8204 166.124 59.8356 166.037 59.8335H162.831V62.3259H165.752C165.905 62.3501 166.044 62.4281 166.145 62.546C166.246 62.6638 166.301 62.8138 166.301 62.9689C166.301 63.1239 166.246 63.2739 166.145 63.3918C166.044 63.5096 165.905 63.5877 165.752 63.6118H162.831V66.1042H166.212C166.299 66.1021 166.385 66.1174 166.466 66.1491C166.547 66.1809 166.62 66.2285 166.683 66.2891C166.745 66.3498 166.794 66.4223 166.828 66.5023C166.861 66.5823 166.879 66.6683 166.879 66.7551C166.879 66.9319 166.809 67.1015 166.683 67.2265C166.558 67.3516 166.389 67.4218 166.212 67.4218V67.4218Z" fill="white"/>
<path d="M172.881 60.1987C172.706 60.1987 172.595 60.1193 172.389 59.9764C172.062 59.7657 171.682 59.6553 171.293 59.6589C170.039 59.6589 169.436 60.5003 169.436 62.2942V63.6595C169.436 65.5327 170.007 66.263 171.214 66.263C171.642 66.2737 172.064 66.1517 172.42 65.9137C172.569 65.7996 172.744 65.7234 172.928 65.6915C173.007 65.6915 173.085 65.7072 173.157 65.7377C173.229 65.7682 173.295 65.8129 173.349 65.8691C173.404 65.9253 173.447 65.992 173.476 66.0651C173.504 66.1382 173.518 66.2163 173.516 66.2947C173.511 66.3946 173.486 66.4925 173.442 66.5825C173.398 66.6725 173.337 66.7528 173.262 66.8186C172.722 67.3266 171.833 67.533 171.214 67.533C168.912 67.533 168.055 65.9614 168.055 63.6595V62.2625C168.055 60.0558 168.928 58.4048 171.293 58.4048C171.976 58.4048 172.77 58.6112 173.246 59.0557C173.323 59.1207 173.387 59.2005 173.434 59.2905C173.48 59.3804 173.508 59.4787 173.516 59.5795C173.516 59.6622 173.499 59.744 173.467 59.8202C173.435 59.8964 173.388 59.9653 173.329 60.0231C173.27 60.0808 173.2 60.126 173.123 60.1562C173.046 60.1864 172.963 60.2008 172.881 60.1987V60.1987Z" fill="white"/>
<path d="M180.247 59.8494H178.167V66.8345C178.167 66.9262 178.149 67.017 178.114 67.1018C178.079 67.1865 178.027 67.2635 177.963 67.3284C177.898 67.3932 177.821 67.4447 177.736 67.4798C177.651 67.5149 177.56 67.533 177.469 67.533C177.377 67.533 177.286 67.5149 177.201 67.4798C177.117 67.4447 177.04 67.3932 176.975 67.3284C176.91 67.2635 176.858 67.1865 176.823 67.1018C176.788 67.017 176.77 66.9262 176.77 66.8345V59.8494H174.69C174.602 59.8515 174.513 59.8358 174.43 59.8033C174.348 59.7707 174.272 59.7219 174.209 59.6598C174.145 59.5977 174.095 59.5234 174.06 59.4415C174.026 59.3596 174.008 59.2715 174.008 59.1826C174.012 59.0043 174.086 58.8348 174.213 58.7102C174.341 58.5856 174.512 58.5158 174.69 58.5159H180.247C180.424 58.5159 180.593 58.5861 180.718 58.7112C180.843 58.8362 180.914 59.0058 180.914 59.1826C180.916 59.2708 180.9 59.3585 180.867 59.4403C180.834 59.5222 180.785 59.5966 180.723 59.6589C180.661 59.7213 180.586 59.7703 180.504 59.8031C180.423 59.8358 180.335 59.8516 180.247 59.8494V59.8494Z" fill="white"/>
<path d="M186.755 67.4218H182.628C182.541 67.4219 182.455 67.4045 182.375 67.3708C182.295 67.3371 182.222 67.2878 182.162 67.2256C182.101 67.1635 182.053 67.0899 182.022 67.009C181.99 66.9282 181.975 66.8419 181.977 66.7551V59.1826C181.975 59.0958 181.99 59.0095 182.022 58.9287C182.053 58.8479 182.101 58.7742 182.162 58.7121C182.222 58.65 182.295 58.6006 182.375 58.5669C182.455 58.5332 182.541 58.5158 182.628 58.5159H186.581C186.667 58.5158 186.753 58.5332 186.833 58.5669C186.913 58.6006 186.986 58.65 187.047 58.7121C187.107 58.7742 187.155 58.8479 187.187 58.9287C187.218 59.0095 187.234 59.0958 187.231 59.1826C187.231 59.3552 187.163 59.5208 187.041 59.6429C186.919 59.7649 186.753 59.8335 186.581 59.8335H183.358V62.3259H186.279C186.432 62.3501 186.572 62.4281 186.672 62.546C186.773 62.6638 186.828 62.8138 186.828 62.9689C186.828 63.1239 186.773 63.2739 186.672 63.3918C186.572 63.5096 186.432 63.5877 186.279 63.6118H183.358V66.1042H186.755C186.928 66.1042 187.093 66.1728 187.215 66.2948C187.337 66.4169 187.406 66.5825 187.406 66.7551C187.408 66.8419 187.393 66.9282 187.361 67.009C187.329 67.0899 187.282 67.1635 187.221 67.2256C187.16 67.2878 187.088 67.3371 187.008 67.3708C186.928 67.4045 186.842 67.4219 186.755 67.4218V67.4218Z" fill="white"/>
<path d="M191.806 67.4218H189.472C189.287 67.4218 189.109 67.3482 188.978 67.2172C188.847 67.0863 188.773 66.9086 188.773 66.7233V59.1985C188.778 59.016 188.853 58.8424 188.984 58.7148C189.114 58.5872 189.289 58.5158 189.472 58.5159H191.806C194.536 58.5159 194.965 60.4844 194.965 61.8338V64.1198C194.965 65.4692 194.536 67.4218 191.806 67.4218ZM193.568 61.8497C193.568 60.7543 193.234 59.8335 191.726 59.8335H190.155V66.1042H191.726C193.25 66.1042 193.568 65.1993 193.568 64.1198V61.8497Z" fill="white"/>
<path d="M201.204 63.3577H199.775V64.7706C199.777 64.8532 199.763 64.9355 199.733 65.0124C199.703 65.0894 199.657 65.1595 199.6 65.2187C199.542 65.2779 199.473 65.3249 199.397 65.357C199.321 65.3891 199.239 65.4056 199.156 65.4056C198.988 65.4056 198.826 65.3387 198.707 65.2196C198.588 65.1005 198.521 64.939 198.521 64.7706V63.3577H197.108C196.955 63.3336 196.815 63.2555 196.715 63.1377C196.614 63.0198 196.559 62.8698 196.559 62.7148C196.559 62.5597 196.614 62.4097 196.715 62.2919C196.815 62.174 196.955 62.096 197.108 62.0718H198.521V60.6589C198.521 60.4905 198.588 60.329 198.707 60.2099C198.826 60.0908 198.988 60.0239 199.156 60.0239C199.239 60.0239 199.321 60.0404 199.397 60.0725C199.473 60.1046 199.542 60.1517 199.6 60.2108C199.657 60.27 199.703 60.3402 199.733 60.4171C199.763 60.4941 199.777 60.5763 199.775 60.6589V62.0718H201.204C201.374 62.0718 201.537 62.1382 201.659 62.2568C201.78 62.3755 201.851 62.537 201.855 62.7068C201.855 62.8795 201.786 63.045 201.664 63.1671C201.542 63.2891 201.377 63.3577 201.204 63.3577Z" fill="white"/>
<path d="M161.625 79.5982C161.466 79.6004 161.311 79.5456 161.189 79.4437C161.067 79.3418 160.985 79.1995 160.958 79.0426C160.831 78.5346 160.688 78.0107 160.545 77.5186H157.37C157.228 78.0107 157.101 78.5346 156.974 79.0426C156.955 79.1291 156.919 79.2111 156.869 79.2838C156.818 79.3566 156.754 79.4187 156.68 79.4666C156.605 79.5145 156.522 79.5473 156.435 79.563C156.348 79.5788 156.258 79.5773 156.172 79.5585C156.085 79.5397 156.003 79.5041 155.931 79.4537C155.858 79.4032 155.796 79.339 155.748 79.2645C155.7 79.1901 155.667 79.1069 155.651 79.0198C155.636 78.9327 155.637 78.8433 155.656 78.7568C156.262 76.177 157.074 73.65 158.085 71.2002C158.339 70.5811 158.656 70.4541 158.974 70.4541C159.291 70.4541 159.641 70.5811 159.879 71.2002C160.889 73.65 161.702 76.177 162.308 78.7568C162.336 78.859 162.339 78.9663 162.317 79.0699C162.295 79.1735 162.249 79.2705 162.182 79.3527C162.116 79.4349 162.03 79.5001 161.933 79.5428C161.836 79.5855 161.731 79.6045 161.625 79.5982V79.5982ZM158.958 72.6608C158.513 73.8355 158.101 75.042 157.72 76.2644H160.212C159.831 75.042 159.418 73.8355 158.958 72.6608V72.6608Z" fill="white"/>
<path d="M166.514 76.0739H164.799V78.8996C164.799 79.0849 164.726 79.2626 164.595 79.3936C164.464 79.5246 164.286 79.5981 164.101 79.5981C163.916 79.5981 163.738 79.5246 163.607 79.3936C163.476 79.2626 163.402 79.0849 163.402 78.8996V71.2637C163.406 71.0812 163.482 70.9076 163.612 70.78C163.743 70.6524 163.918 70.581 164.101 70.5811H166.419C168.53 70.5811 169.229 71.8511 169.229 73.0417V73.6608C169.229 75.0896 168.244 76.0739 166.514 76.0739ZM167.832 73.0735C167.832 72.5019 167.53 71.8828 166.323 71.8828H164.799V74.8039H166.466C167.466 74.8039 167.832 74.2482 167.832 73.645V73.0735Z" fill="white"/>
<path d="M173.737 76.0739H172.022V78.8996C172.024 78.992 172.008 79.0838 171.973 79.1695C171.939 79.2552 171.888 79.3331 171.822 79.3984C171.757 79.4637 171.679 79.5151 171.593 79.5494C171.508 79.5837 171.416 79.6003 171.323 79.5981C171.232 79.5981 171.141 79.5801 171.056 79.545C170.971 79.5099 170.894 79.4584 170.83 79.3936C170.765 79.3287 170.713 79.2517 170.678 79.1669C170.643 79.0822 170.625 78.9914 170.625 78.8996V71.2637C170.629 71.0812 170.705 70.9076 170.835 70.78C170.966 70.6524 171.141 70.581 171.323 70.5811H173.641C175.753 70.5811 176.451 71.8511 176.451 73.0417V73.6608C176.451 75.0896 175.467 76.0739 173.737 76.0739ZM175.054 73.0735C175.054 72.5019 174.753 71.8828 173.546 71.8828H172.022V74.8039H173.689C174.689 74.8039 175.054 74.2482 175.054 73.645V73.0735Z" fill="white"/>
</svg>
